<?xml version="1.0" standalone="no"?>
<!DOCTYPE svg PUBLIC "-//W3C//DTD SVG 20010904//EN"
 "http://www.w3.org/TR/2001/REC-SVG-20010904/DTD/svg10.dtd">
<svg version="1.0" xmlns="http://www.w3.org/2000/svg"
 width="700.000000pt" height="700.000000pt" viewBox="0 0 700.000000 700.000000"
 preserveAspectRatio="xMidYMid meet">
<metadata>
Created by potrace 1.14, written by Peter Selinger 2001-2017
</metadata>
<g transform="translate(0.000000,700.000000) scale(0.100000,-0.100000)"
fill="#000000" stroke="none">
<path d="M3465 6857 c-11 -7 -58 -33 -105 -58 l-85 -47 0 -1440 0 -1441 -115
61 c-63 34 -133 71 -155 83 -42 24 -351 191 -470 255 -38 21 -97 53 -130 70
-33 18 -87 47 -120 65 -67 36 -1256 679 -1350 730 -33 18 -119 64 -191 104
-72 39 -137 71 -145 71 -8 0 -54 -24 -102 -53 l-88 -52 0 -1668 c-1 -1606 0
-1669 18 -1681 10 -7 53 -32 95 -55 l77 -42 88 47 c48 26 102 54 118 64 17 9
71 39 120 65 50 27 218 117 373 202 156 84 285 153 287 153 2 0 30 15 62 33
32 19 102 57 157 86 54 29 114 62 135 73 20 11 99 54 176 95 77 41 154 83 170
93 17 9 73 40 125 67 83 44 205 110 375 203 28 15 86 46 130 70 44 23 141 76
216 116 75 41 138 74 140 74 2 0 4 -653 4 -1451 0 -975 3 -1455 10 -1464 5 -7
53 -35 105 -63 l95 -50 50 27 c28 14 75 40 105 58 l55 32 0 1455 c0 801 1
1456 3 1456 2 0 26 -13 55 -29 29 -15 93 -50 142 -76 50 -26 104 -56 120 -65
17 -10 64 -35 105 -57 41 -22 190 -102 330 -178 259 -140 331 -178 443 -239
143 -77 402 -217 477 -258 25 -14 81 -44 125 -68 44 -24 127 -69 185 -100 58
-31 150 -81 205 -110 55 -29 114 -60 130 -70 46 -27 115 -64 240 -130 l114
-61 93 50 93 50 2 1665 2 1665 -52 29 c-29 17 -106 58 -172 92 -66 35 -154 82
-195 105 -41 23 -104 58 -140 77 -72 39 -769 420 -840 460 -25 14 -76 42 -115
63 -38 21 -117 63 -175 95 -58 32 -134 73 -170 93 -36 19 -150 82 -255 139
-104 58 -221 122 -260 143 -38 21 -92 50 -120 65 -27 15 -77 42 -110 60 -33
18 -95 53 -137 76 -43 24 -80 44 -84 44 -3 0 -18 8 -32 19 -15 10 -70 41 -122
69 -81 43 -98 49 -115 39z m334 -599 c116 -62 190 -101 296 -158 44 -23 103
-55 130 -70 28 -15 88 -48 135 -72 47 -25 306 -164 575 -308 270 -144 528
-283 575 -308 47 -25 108 -57 135 -72 147 -79 252 -135 272 -144 13 -6 23 -14
23 -17 0 -5 -245 -142 -450 -252 -36 -19 -85 -46 -110 -59 -25 -14 -184 -101
-355 -193 -170 -92 -335 -181 -365 -198 -30 -17 -77 -43 -105 -57 -27 -15 -75
-41 -105 -57 -30 -17 -190 -104 -355 -193 -165 -89 -319 -173 -343 -186 -23
-13 -46 -24 -50 -24 -4 0 -7 545 -7 1210 0 666 2 1210 4 1210 2 0 47 -23 100
-52z m-2840 -1577 c91 -49 191 -102 221 -119 128 -69 782 -423 865 -467 50
-26 104 -56 120 -65 17 -10 66 -37 110 -60 44 -24 103 -56 132 -71 28 -16 73
-40 100 -54 223 -118 553 -300 553 -305 -1 -4 -284 -159 -665 -364 -49 -26
-157 -85 -240 -131 -82 -45 -190 -104 -240 -130 -49 -26 -103 -56 -120 -65
-16 -10 -68 -38 -115 -63 -47 -25 -121 -65 -165 -89 -44 -25 -120 -66 -170
-93 -49 -27 -108 -58 -130 -70 -52 -29 -384 -209 -410 -223 -20 -10 -20 -7
-20 1224 0 679 2 1234 4 1234 2 0 79 -40 170 -89z m5216 -1141 c0 -676 -3
-1230 -7 -1230 -4 0 -27 11 -50 23 -24 13 -83 46 -133 72 -49 27 -133 72 -185
100 -157 86 -217 118 -435 235 -44 24 -125 68 -180 98 -55 30 -138 75 -185 99
-47 25 -107 58 -135 73 -102 56 -152 83 -230 125 -44 24 -229 124 -412 222
-378 205 -351 171 -203 250 195 104 255 137 393 212 28 15 108 59 177 96 69
37 152 82 185 100 186 101 448 242 501 270 33 18 81 44 105 57 24 14 85 46
134 73 50 26 137 74 195 105 58 31 141 76 185 100 44 23 107 57 140 75 46 26
139 75 140 75 0 0 0 -553 0 -1230z"/>
</g>
</svg>
